HIERARCHY
ROOT mixamorig:Hips
{
	OFFSET 0.000000 201.639420 0.000000
	CHANNELS 6 Xposition Yposition Zposition Xrotation Yrotation Zrotation
	JOINT mixamorig:Spine
	{
		OFFSET 0.006200 19.524994 -2.481800
		CHANNELS 3 Xrotation Yrotation Zrotation
		JOINT mixamorig:Spine1
		{
			OFFSET -0.000900 22.835007 -2.825400
			CHANNELS 3 Xrotation Yrotation Zrotation
			JOINT mixamorig:Spine2
			{
				OFFSET -0.020600 26.552490 -3.193300
				CHANNELS 3 Xrotation Yrotation Zrotation
				JOINT mixamorig:Neck
				{
					OFFSET -0.060000 30.701813 1.352200
					CHANNELS 3 Xrotation Yrotation Zrotation
					JOINT mixamorig:Head
					{
						OFFSET -0.087200 22.547607 3.670900
						CHANNELS 3 Xrotation Yrotation Zrotation
						JOINT mixamorig:HeadTop_End
						{
							OFFSET -0.830600 40.355194 7.893500
							CHANNELS 3 Xrotation Yrotation Zrotation
							End Site
							{
								OFFSET 0.000000 30.592346 0.000000
							}
						}
						JOINT mixamorig:RightEye
						{
							OFFSET -6.302100 18.118591 16.197100
							CHANNELS 3 Xrotation Yrotation Zrotation
							End Site
							{
								OFFSET 0.000000 30.592346 0.000000
							}
						}
						JOINT mixamorig:LeftEye
						{
							OFFSET 6.741500 18.382690 16.401899
							CHANNELS 3 Xrotation Yrotation Zrotation
							End Site
							{
								OFFSET 0.000000 30.592346 0.000000
							}
						}
					}
				}
				JOINT mixamorig:LeftShoulder
				{
					OFFSET 11.924900 18.230499 1.425400
					CHANNELS 3 Xrotation Yrotation Zrotation
					JOINT mixamorig:LeftArm
					{
						OFFSET 25.435989 -0.697632 -5.229300
						CHANNELS 3 Xrotation Yrotation Zrotation
						JOINT mixamorig:LeftForeArm
						{
							OFFSET 54.684776 0.000000 0.000000
							CHANNELS 3 Xrotation Yrotation Zrotation
							JOINT mixamorig:LeftHand
							{
								OFFSET 55.098175 0.000000 0.000000
								CHANNELS 3 Xrotation Yrotation Zrotation
								JOINT mixamorig:LeftHandMiddle1
								{
									OFFSET 23.369751 0.000000 0.000000
									CHANNELS 3 Xrotation Yrotation Zrotation
									JOINT mixamorig:LeftHandMiddle2
									{
										OFFSET 6.378677 0.000000 0.000000
										CHANNELS 3 Xrotation Yrotation Zrotation
										JOINT mixamorig:LeftHandMiddle3
										{
											OFFSET 6.148331 0.000000 0.000000
											CHANNELS 3 Xrotation Yrotation Zrotation
											JOINT mixamorig:LeftHandMiddle4
											{
												OFFSET 6.582504 0.000000 0.000000
												CHANNELS 3 Xrotation Yrotation Zrotation
												End Site
												{
													OFFSET -1.168900 6.395691 1.028606
												}
											}
										}
									}
								}
								JOINT mixamorig:LeftHandThumb1
								{
									OFFSET 7.235672 -3.848206 5.434273
									CHANNELS 3 Xrotation Yrotation Zrotation
									JOINT mixamorig:LeftHandThumb2
									{
										OFFSET 6.568451 -3.792297 3.792300
										CHANNELS 3 Xrotation Yrotation Zrotation
										JOINT mixamorig:LeftHandThumb3
										{
											OFFSET 6.063080 -3.500519 3.500518
											CHANNELS 3 Xrotation Yrotation Zrotation
											JOINT mixamorig:LeftHandThumb4
											{
												OFFSET 4.793182 -2.767334 2.767349
												CHANNELS 3 Xrotation Yrotation Zrotation
												End Site
												{
													OFFSET 0.101639 6.054260 1.275483
												}
											}
										}
									}
								}
								JOINT mixamorig:LeftHandIndex1
								{
									OFFSET 23.101074 -0.309540 4.992809
									CHANNELS 3 Xrotation Yrotation Zrotation
									JOINT mixamorig:LeftHandIndex2
									{
										OFFSET 6.226883 0.000000 0.000000
										CHANNELS 3 Xrotation Yrotation Zrotation
										JOINT mixamorig:LeftHandIndex3
										{
											OFFSET 6.094330 0.000000 0.000000
											CHANNELS 3 Xrotation Yrotation Zrotation
											JOINT mixamorig:LeftHandIndex4
											{
												OFFSET 5.482605 0.000000 0.000000
												CHANNELS 3 Xrotation Yrotation Zrotation
												End Site
												{
													OFFSET -1.427902 5.233032 0.797164
												}
											}
										}
									}
								}
								JOINT mixamorig:LeftHandRing1
								{
									OFFSET 22.299240 0.021149 -3.964172
									CHANNELS 3 Xrotation Yrotation Zrotation
									JOINT mixamorig:LeftHandRing2
									{
										OFFSET 6.321869 0.000000 0.000000
										CHANNELS 3 Xrotation Yrotation Zrotation
										JOINT mixamorig:LeftHandRing3
										{
											OFFSET 5.899796 0.000000 0.000000
											CHANNELS 3 Xrotation Yrotation Zrotation
											JOINT mixamorig:LeftHandRing4
											{
												OFFSET 6.517899 0.000000 0.000000
												CHANNELS 3 Xrotation Yrotation Zrotation
												End Site
												{
													OFFSET -1.637299 6.232208 0.980890
												}
											}
										}
									}
								}
								JOINT mixamorig:LeftHandPinky1
								{
									OFFSET 20.463791 -0.302338 -8.562233
									CHANNELS 3 Xrotation Yrotation Zrotation
									JOINT mixamorig:LeftHandPinky2
									{
										OFFSET 6.908646 0.000000 0.000000
										CHANNELS 3 Xrotation Yrotation Zrotation
										JOINT mixamorig:LeftHandPinky3
										{
											OFFSET 4.622849 0.000000 0.000000
											CHANNELS 3 Xrotation Yrotation Zrotation
											JOINT mixamorig:LeftHandPinky4
											{
												OFFSET 5.216080 0.000000 0.000000
												CHANNELS 3 Xrotation Yrotation Zrotation
												End Site
												{
													OFFSET -0.606308 5.116241 0.814926
												}
											}
										}
									}
								}
							}
						}
					}
				}
				JOINT mixamorig:RightShoulder
				{
					OFFSET -12.001300 18.284088 1.348900
					CHANNELS 3 Xrotation Yrotation Zrotation
					JOINT mixamorig:RightArm
					{
						OFFSET -25.308500 -0.751312 -5.164599
						CHANNELS 3 Xrotation Yrotation Zrotation
						JOINT mixamorig:RightForeArm
						{
							OFFSET -54.684429 0.000000 0.000000
							CHANNELS 3 Xrotation Yrotation Zrotation
							JOINT mixamorig:RightHand
							{
								OFFSET -55.150291 0.000000 0.000000
								CHANNELS 3 Xrotation Yrotation Zrotation
								JOINT mixamorig:RightHandMiddle1
								{
									OFFSET -23.317566 0.000000 0.000000
									CHANNELS 3 Xrotation Yrotation Zrotation
									JOINT mixamorig:RightHandMiddle2
									{
										OFFSET -6.378403 0.000000 0.000000
										CHANNELS 3 Xrotation Yrotation Zrotation
										JOINT mixamorig:RightHandMiddle3
										{
											OFFSET -6.148193 0.000000 0.000000
											CHANNELS 3 Xrotation Yrotation Zrotation
											JOINT mixamorig:RightHandMiddle4
											{
												OFFSET -6.583389 0.000000 0.000000
												CHANNELS 3 Xrotation Yrotation Zrotation
												End Site
												{
													OFFSET 1.171692 6.395905 1.029786
												}
											}
										}
									}
								}
								JOINT mixamorig:RightHandThumb1
								{
									OFFSET -7.190521 -3.860474 5.435846
									CHANNELS 3 Xrotation Yrotation Zrotation
									JOINT mixamorig:RightHandThumb2
									{
										OFFSET -6.567429 -3.791718 3.791708
										CHANNELS 3 Xrotation Yrotation Zrotation
										JOINT mixamorig:RightHandThumb3
										{
											OFFSET -6.062469 -3.500153 3.500166
											CHANNELS 3 Xrotation Yrotation Zrotation
											JOINT mixamorig:RightHandThumb4
											{
												OFFSET -4.792618 -2.767029 2.767022
												CHANNELS 3 Xrotation Yrotation Zrotation
												End Site
												{
													OFFSET -0.100327 6.053253 1.276754
												}
											}
										}
									}
								}
								JOINT mixamorig:RightHandIndex1
								{
									OFFSET -23.048981 -0.310791 4.992554
									CHANNELS 3 Xrotation Yrotation Zrotation
									JOINT mixamorig:RightHandIndex2
									{
										OFFSET -6.227539 0.000000 0.000000
										CHANNELS 3 Xrotation Yrotation Zrotation
										JOINT mixamorig:RightHandIndex3
										{
											OFFSET -6.095047 0.000000 0.000000
											CHANNELS 3 Xrotation Yrotation Zrotation
											JOINT mixamorig:RightHandIndex4
											{
												OFFSET -5.484772 0.000000 0.000000
												CHANNELS 3 Xrotation Yrotation Zrotation
												End Site
												{
													OFFSET 1.420593 5.237305 0.797056
												}
											}
										}
									}
								}
								JOINT mixamorig:RightHandRing1
								{
									OFFSET -22.246323 0.020569 -3.963762
									CHANNELS 3 Xrotation Yrotation Zrotation
									JOINT mixamorig:RightHandRing2
									{
										OFFSET -6.322128 0.000000 0.000000
										CHANNELS 3 Xrotation Yrotation Zrotation
										JOINT mixamorig:RightHandRing3
										{
											OFFSET -5.900024 0.000000 0.000000
											CHANNELS 3 Xrotation Yrotation Zrotation
											JOINT mixamorig:RightHandRing4
											{
												OFFSET -6.518356 0.000000 0.000000
												CHANNELS 3 Xrotation Yrotation Zrotation
												End Site
												{
													OFFSET 1.636398 6.232697 0.982186
												}
											}
										}
									}
								}
								JOINT mixamorig:RightHandPinky1
								{
									OFFSET -20.411011 -0.303314 -8.561701
									CHANNELS 3 Xrotation Yrotation Zrotation
									JOINT mixamorig:RightHandPinky2
									{
										OFFSET -6.907349 0.000000 0.000000
										CHANNELS 3 Xrotation Yrotation Zrotation
										JOINT mixamorig:RightHandPinky3
										{
											OFFSET -4.623840 0.000000 0.000000
											CHANNELS 3 Xrotation Yrotation Zrotation
											JOINT mixamorig:RightHandPinky4
											{
												OFFSET -5.218353 0.000000 0.000000
												CHANNELS 3 Xrotation Yrotation Zrotation
												End Site
												{
													OFFSET 0.602097 5.118835 0.816273
												}
											}
										}
									}
								}
							}
						}
					}
				}
			}
		}
	}
	JOINT mixamorig:LeftUpLeg
	{
		OFFSET 18.168400 -13.561905 -0.039000
		CHANNELS 3 Xrotation Yrotation Zrotation
		JOINT mixamorig:LeftLeg
		{
			OFFSET 0.577358 -80.825211 -3.695000
			CHANNELS 3 Xrotation Yrotation Zrotation
			JOINT mixamorig:LeftFoot
			{
				OFFSET -0.577356 -83.370262 -6.520700
				CHANNELS 3 Xrotation Yrotation Zrotation
				JOINT mixamorig:LeftToeBase
				{
					OFFSET 0.750401 -20.798306 25.135401
					CHANNELS 3 Xrotation Yrotation Zrotation
					JOINT mixamorig:LeftToe_End
					{
						OFFSET -0.000500 0.001200 19.917799
						CHANNELS 3 Xrotation Yrotation Zrotation
						End Site
						{
							OFFSET 0.000000 19.917805 0.000000
						}
					}
				}
			}
		}
	}
	JOINT mixamorig:RightUpLeg
	{
		OFFSET -18.162500 -13.585098 -0.041000
		CHANNELS 3 Xrotation Yrotation Zrotation
		JOINT mixamorig:RightLeg
		{
			OFFSET -0.595024 -80.945297 -3.631900
			CHANNELS 3 Xrotation Yrotation Zrotation
			JOINT mixamorig:RightFoot
			{
				OFFSET 0.595024 -83.218193 -6.561200
				CHANNELS 3 Xrotation Yrotation Zrotation
				JOINT mixamorig:RightToeBase
				{
					OFFSET -0.753601 -20.807106 25.115000
					CHANNELS 3 Xrotation Yrotation Zrotation
					JOINT mixamorig:RightToe_End
					{
						OFFSET 0.000299 0.001700 19.918200
						CHANNELS 3 Xrotation Yrotation Zrotation
						End Site
						{
							OFFSET 0.000000 19.918203 0.000000
						}
					}
				}
			}
		}
	}
}
MOTION
Frames: 4
Frame Time: 0.033333
0.500088 183.647827 -1.024817 -1.735334 -17.054024 -1.942774 3.882374 2.400826 -0.367224 2.929113 2.056184 -0.138334 2.894089 2.112998 -0.161224 1.137078 0.245403 5.249917 -1.998746 7.430611 1.905183 -0.000000 -0.000000 -0.000000 -0.000000 -0.000000 -0.000000 -0.000000 -0.000000 -0.000000 1.375474 -4.867614 21.431197 -66.234230 -43.614856 -65.821993 -0.000005 -37.698399 -0.000005 -66.348594 -13.253365 -9.215213 0.796782 3.220217 -27.788698 0.800467 3.227230 -27.854644 0.202664 1.661529 -13.908055 -0.000001 -0.000001 -0.000001 22.601028 -28.107332 -14.151467 29.406809 28.726526 -29.411775 9.113568 14.378721 -9.922568 0.000002 0.000004 0.000002 0.797673 3.221926 -27.804723 0.799571 3.225532 -27.838605 0.202663 1.661526 -13.908046 0.000001 -0.000000 -0.000001 0.797682 3.221929 -27.804729 0.799553 3.225546 -27.838606 0.202663 1.661526 -13.908051 -0.000003 0.000000 -0.000000 2.684957 6.814120 -27.459488 0.809033 -0.835558 -28.291863 0.202647 1.661533 -13.908051 -0.000002 0.000001 0.000000 0.445412 -0.777912 -3.588725 -96.770660 65.301151 91.341745 -0.000004 28.227471 0.000011 -31.535663 -1.128101 -3.934988 3.635329 -6.110986 61.464456 7.728627 -6.904478 96.464435 2.305169 -5.174781 47.998745 -0.000001 -0.000000 0.000001 40.606595 -3.110520 26.124217 -37.849521 -44.265042 -46.874997 -12.282891 -22.415211 -17.633370 0.000001 0.000000 -0.000000 3.635330 -6.110983 61.464463 7.728595 -6.904442 96.464442 2.305155 -5.174785 47.998748 -0.000000 -0.000002 0.000001 3.635332 -6.110996 61.464456 7.728619 -6.904480 96.464442 2.305142 -5.174767 47.998724 -0.000005 0.000001 0.000000 3.635331 -6.110982 61.464463 7.728624 -6.904472 96.464449 2.305153 -5.174775 47.998738 -0.000002 0.000001 -0.000001 -38.479042 17.303880 15.100758 49.828535 0.609447 8.298212 -12.380523 0.980974 -7.718965 -0.000038 0.000006 -0.000003 -0.000000 -0.000000 0.000000 -33.545228 -22.371018 -14.760049 48.613564 -2.746041 -10.190192 -15.619703 -1.938787 11.607639 -0.044165 -0.000005 -0.000000 -0.000000 -0.000000 0.000000 
0.525580 183.687515 -1.051697 -1.626726 -16.971997 -1.980954 3.800871 2.354264 -0.397819 2.861042 2.025619 -0.161035 2.826366 2.081183 -0.184055 1.013256 0.275720 5.218581 -1.630487 7.574888 2.116823 0.000000 0.000000 -0.000000 0.000000 0.000000 -0.000000 0.000000 0.000000 -0.000000 1.197541 -4.311162 21.317164 -66.220378 -44.101394 -66.345623 0.000005 -37.563387 0.000008 -66.390818 -13.293311 -9.237039 0.796792 3.220204 -27.788717 0.800491 3.227225 -27.854649 0.202677 1.661523 -13.908047 -0.000004 -0.000000 0.000001 22.601024 -28.107328 -14.151473 29.406799 28.726512 -29.411782 9.113585 14.378723 -9.922564 -0.000002 0.000004 0.000001 0.797691 3.221919 -27.804747 0.799588 3.225518 -27.838617 0.202664 1.661525 -13.908048 0.000000 -0.000001 0.000001 0.797694 3.221929 -27.804751 0.799577 3.225531 -27.838623 0.202680 1.661528 -13.908049 -0.000001 0.000000 -0.000002 2.684979 6.814120 -27.459497 0.809017 -0.835564 -28.291870 0.202691 1.661531 -13.908051 -0.000002 -0.000000 0.000001 0.420788 -0.878673 -3.678653 -97.391722 65.633316 92.327219 -0.000002 28.080204 0.000004 -32.170809 -0.929055 -4.090765 3.635332 -6.110987 61.464456 7.728632 -6.904479 96.464435 2.305165 -5.174786 47.998745 0.000002 0.000001 -0.000001 40.606595 -3.110520 26.124217 -37.849514 -44.265039 -46.875001 -12.282891 -22.415209 -17.633368 -0.000001 -0.000001 -0.000000 3.635334 -6.110983 61.464463 7.728596 -6.904444 96.464442 2.305152 -5.174785 47.998745 0.000002 -0.000003 -0.000000 3.635337 -6.110997 61.464456 7.728623 -6.904479 96.464442 2.305136 -5.174766 47.998724 0.000001 -0.000000 -0.000001 3.635331 -6.110980 61.464463 7.728624 -6.904467 96.464449 2.305148 -5.174773 47.998745 0.000002 0.000001 -0.000001 -38.638015 17.403051 15.054913 49.768945 0.512818 8.555758 -12.323301 0.989554 -7.768152 -0.000038 0.000006 -0.000003 -0.000000 -0.000000 -0.000000 -33.410594 -22.026184 -14.412765 48.432888 -3.268672 -10.190030 -15.517290 -1.966781 11.808507 -0.041699 -0.000015 -0.000002 -0.000000 0.000000 0.000000 
0.545565 183.729340 -1.090795 -1.539587 -16.877450 -2.016772 3.710755 2.299871 -0.429325 2.786248 1.989593 -0.186652 2.751847 2.043989 -0.209764 0.882842 0.313524 5.182327 -1.266818 7.713328 2.375813 -0.000000 0.000000 -0.000000 -0.000000 0.000000 -0.000000 -0.000000 0.000000 -0.000000 1.019913 -3.765065 21.180162 -66.256967 -44.780564 -66.867292 0.000004 -37.205458 0.000004 -66.623981 -13.405850 -9.486544 0.796800 3.220204 -27.788703 0.800484 3.227223 -27.854637 0.202659 1.661527 -13.908053 -0.000000 -0.000001 0.000001 22.601031 -28.107345 -14.151454 29.406816 28.726519 -29.411785 9.113589 14.378735 -9.922561 0.000002 -0.000002 -0.000001 0.797685 3.221914 -27.804747 0.799598 3.225517 -27.838606 0.202651 1.661525 -13.908055 -0.000001 0.000000 0.000002 0.797702 3.221914 -27.804734 0.799574 3.225527 -27.838605 0.202671 1.661524 -13.908054 0.000001 0.000000 -0.000001 2.684990 6.814106 -27.459497 0.809022 -0.835561 -28.291861 0.202685 1.661530 -13.908058 0.000000 -0.000000 0.000001 0.404875 -0.937676 -3.845163 -97.856728 65.978056 93.148406 -0.000003 27.937402 -0.000001 -32.878311 -0.806423 -4.356516 3.635325 -6.110984 61.464456 7.728631 -6.904480 96.464442 2.305159 -5.174785 47.998748 0.000001 -0.000002 0.000004 40.606591 -3.110518 26.124219 -37.849517 -44.265032 -46.874997 -12.282890 -22.415209 -17.633373 -0.000001 -0.000001 -0.000001 3.635327 -6.110983 61.464463 7.728599 -6.904441 96.464442 2.305157 -5.174790 47.998751 -0.000001 0.000001 -0.000003 3.635333 -6.110996 61.464456 7.728621 -6.904481 96.464442 2.305138 -5.174770 47.998721 -0.000001 -0.000001 0.000001 3.635329 -6.110980 61.464463 7.728625 -6.904473 96.464449 2.305144 -5.174776 47.998741 -0.000003 -0.000002 0.000002 -38.764691 17.486821 14.987798 49.697146 0.422734 8.810973 -12.255887 1.002048 -7.821601 -0.000038 0.000006 -0.000003 -0.000000 -0.000000 -0.000000 -33.269763 -21.696630 -14.085578 48.255799 -3.800850 -10.189513 -15.414683 -1.990647 12.002975 -0.038336 -0.000010 0.000001 -0.000000 0.000000 -0.000000 
0.550574 183.776260 -1.105839 -1.520146 -16.830807 -2.047526 3.632872 2.265762 -0.441472 2.721320 1.964425 -0.202544 2.687296 2.017431 -0.225594 0.806830 0.333086 5.152104 -0.875710 7.768170 2.591756 0.000001 0.000000 -0.000000 0.000001 0.000000 -0.000000 0.000001 0.000000 -0.000000 0.894388 -3.366663 20.917289 -66.349926 -45.568635 -67.365411 0.000007 -36.612730 -0.000001 -66.965231 -13.540390 -9.894802 0.796766 3.220222 -27.788700 0.800493 3.227229 -27.854644 0.202661 1.661525 -13.908049 -0.000001 -0.000000 0.000002 22.601012 -28.107316 -14.151479 29.406792 28.726512 -29.411775 9.113571 14.378713 -9.922569 0.000001 0.000001 -0.000001 0.797672 3.221924 -27.804735 0.799588 3.225519 -27.838608 0.202639 1.661523 -13.908048 -0.000002 0.000000 -0.000000 0.797682 3.221924 -27.804730 0.799564 3.225537 -27.838622 0.202673 1.661523 -13.908054 -0.000001 -0.000000 -0.000002 2.684944 6.814136 -27.459485 0.809035 -0.835555 -28.291868 0.202655 1.661532 -13.908053 -0.000001 -0.000000 -0.000001 0.404557 -0.912676 -4.110919 -97.947747 66.305830 93.570067 -0.000001 27.813391 -0.000003 -33.558342 -0.774655 -4.628703 3.635328 -6.110986 61.464449 7.728631 -6.904483 96.464442 2.305163 -5.174784 47.998745 -0.000005 0.000000 0.000002 40.606595 -3.110517 26.124222 -37.849517 -44.265042 -46.874997 -12.282889 -22.415209 -17.633370 0.000001 -0.000001 -0.000000 3.635327 -6.110978 61.464463 7.728594 -6.904442 96.464442 2.305159 -5.174785 47.998748 0.000003 -0.000001 0.000001 3.635337 -6.110994 61.464463 7.728618 -6.904477 96.464442 2.305135 -5.174767 47.998724 -0.000001 -0.000000 0.000000 3.635329 -6.110980 61.464469 7.728625 -6.904476 96.464449 2.305147 -5.174774 47.998745 0.000003 0.000003 -0.000002 -38.792445 17.590847 14.928982 49.613999 0.357855 9.035851 -12.204148 1.014682 -7.882838 -0.000038 0.000006 -0.000003 0.000000 0.000000 0.000000 -33.112969 -21.451012 -13.853852 48.107833 -4.150488 -10.189210 -15.336216 -2.007836 12.138073 -0.034366 -0.000010 -0.000002 0.000000 0.000000 0.000000 
